<svg width="12" height="12" viewBox="0 0 12 12" fill="none" xmlns="http://www.w3.org/2000/svg">
<path fill-rule="evenodd" clip-rule="evenodd" d="M6.00056 0C4.37105 0 4.16654 0.00712508 3.52654 0.0362504C2.88778 0.0655007 2.45178 0.166627 2.07027 0.315003C1.67564 0.468255 1.34089 0.673257 1.00739 1.00689C0.673632 1.34039 0.46863 1.67514 0.314878 2.06965C0.166127 2.45128 0.0648757 2.88741 0.0361254 3.52591C0.00750008 4.16592 0 4.37055 0 6.00006C0 7.62958 0.00725008 7.83346 0.0362504 8.47346C0.0656257 9.11222 0.166752 9.54822 0.315003 9.92973C0.46838 10.3244 0.673382 10.6591 1.00701 10.9926C1.34039 11.3264 1.67514 11.5319 2.06952 11.6851C2.45128 11.8335 2.8874 11.9346 3.52604 11.9639C4.16604 11.993 4.37042 12.0001 5.99981 12.0001C7.62945 12.0001 7.83333 11.993 8.47334 11.9639C9.11209 11.9346 9.5486 11.8335 9.93035 11.6851C10.3249 11.5319 10.6591 11.3264 10.9925 10.9926C11.3262 10.6591 11.5312 10.3244 11.685 9.92985C11.8325 9.54822 11.9338 9.11209 11.9637 8.47359C11.9925 7.83358 12 7.62958 12 6.00006C12 4.37055 11.9925 4.16604 11.9637 3.52604C11.9338 2.88728 11.8325 2.45128 11.685 2.06977C11.5312 1.67514 11.3262 1.34039 10.9925 1.00689C10.6587 0.673132 10.325 0.46813 9.92998 0.315003C9.54747 0.166627 9.11122 0.0655007 8.47246 0.0362504C7.83246 0.00712508 7.62871 0 5.99869 0H6.00056ZM5.4623 1.08125C5.62205 1.081 5.8003 1.08125 6.00055 1.08125C7.60257 1.08125 7.79244 1.087 8.42508 1.11575C9.01008 1.1425 9.32759 1.24025 9.53909 1.32238C9.81909 1.43113 10.0187 1.56113 10.2286 1.77113C10.4386 1.98113 10.5686 2.18113 10.6776 2.46114C10.7597 2.67239 10.8576 2.98989 10.8842 3.5749C10.913 4.20741 10.9192 4.39741 10.9192 5.99867C10.9192 7.59994 10.913 7.78994 10.8842 8.42245C10.8575 9.00745 10.7597 9.32496 10.6776 9.53621C10.5688 9.81621 10.4386 10.0156 10.2286 10.2255C10.0186 10.4355 9.81922 10.5655 9.53909 10.6742C9.32784 10.7567 9.01008 10.8542 8.42508 10.881C7.79257 10.9097 7.60257 10.916 6.00055 10.916C4.39841 10.916 4.20853 10.9097 3.57603 10.881C2.99102 10.854 2.67352 10.7562 2.46189 10.6741C2.18189 10.5653 1.98188 10.4353 1.77188 10.2253C1.56188 10.0153 1.43188 9.81584 1.32288 9.53571C1.24075 9.32446 1.14288 9.00696 1.11625 8.42195C1.0875 7.78944 1.08175 7.59944 1.08175 5.99717C1.08175 4.39491 1.0875 4.2059 1.11625 3.5734C1.143 2.98839 1.24075 2.67089 1.32288 2.45939C1.43163 2.17938 1.56188 1.97938 1.77188 1.76938C1.98188 1.55938 2.18189 1.42938 2.46189 1.32038C2.67339 1.23787 2.99102 1.14037 3.57603 1.1135C4.12953 1.0885 4.34403 1.081 5.4623 1.07975V1.08125ZM9.20335 2.07752C8.80584 2.07752 8.48334 2.39965 8.48334 2.79728C8.48334 3.19478 8.80584 3.51728 9.20335 3.51728C9.60085 3.51728 9.92336 3.19478 9.92336 2.79728C9.92336 2.39977 9.60085 2.07727 9.20335 2.07727V2.07752ZM6.00055 2.91878C4.29891 2.91878 2.91927 4.29842 2.91927 6.00006C2.91927 7.70171 4.29891 9.08072 6.00055 9.08072C7.70219 9.08072 9.08133 7.70171 9.08133 6.00006C9.08133 4.29842 7.70207 2.91878 6.00043 2.91878H6.00055ZM6.00055 4.00004C7.10506 4.00004 8.00057 4.89543 8.00057 6.00006C8.00057 7.10457 7.10506 8.00008 6.00055 8.00008C4.89591 8.00008 4.00053 7.10457 4.00053 6.00006C4.00053 4.89543 4.89591 4.00004 6.00055 4.00004Z" fill="white"/>
</svg>
