<svg width="18" height="13" viewBox="0 0 18 13" fill="none" xmlns="http://www.w3.org/2000/svg">
<path d="M0 0.5C0 0.223858 0.223858 0 0.5 0H17.5C17.7761 0 18 0.223858 18 0.5C18 0.776142 17.7761 1 17.5 1H0.5C0.223858 1 0 0.776142 0 0.5Z" fill="#262835"/>
<path d="M0 6.5C0 6.22386 0.223858 6 0.5 6H17.5C17.7761 6 18 6.22386 18 6.5C18 6.77614 17.7761 7 17.5 7H0.5C0.223858 7 0 6.77614 0 6.5Z" fill="#262835"/>
<path d="M0 12.5C0 12.2239 0.223858 12 0.5 12H17.5C17.7761 12 18 12.2239 18 12.5C18 12.7761 17.7761 13 17.5 13H0.5C0.223858 13 0 12.7761 0 12.5Z" fill="#262835"/>
</svg>
