<svg width="13" height="13" viewBox="0 0 13 13" fill="none" xmlns="http://www.w3.org/2000/svg">
<path d="M12.8871 12.337L9.72794 9.17783C10.5754 8.20355 11.0885 6.93237 11.0885 5.54302C11.0885 2.4847 8.60089 0 5.54546 0C2.48714 0 0.00244141 2.48758 0.00244141 5.54302C0.00244141 8.59845 2.49002 11.086 5.54546 11.086C6.93481 11.086 8.20599 10.5729 9.18027 9.7255L12.3395 12.8847C12.4144 12.9596 12.5153 13 12.6133 13C12.7113 13 12.8122 12.9625 12.8871 12.8847C13.037 12.7348 13.037 12.4869 12.8871 12.337ZM0.777829 5.54302C0.777829 2.91419 2.91663 0.778271 5.54257 0.778271C8.1714 0.778271 10.3073 2.91707 10.3073 5.54302C10.3073 8.16896 8.1714 10.3106 5.54257 10.3106C2.91663 10.3106 0.777829 8.17184 0.777829 5.54302Z" fill="black"/>
</svg>
