<svg width="12" height="12" viewBox="0 0 12 12" fill="none" xmlns="http://www.w3.org/2000/svg">
<g clip-path="url(#clip0)">
<path d="M11.7281 2.22173C11.5396 2.30535 11.3457 2.37592 11.1477 2.43321C11.3822 2.16804 11.5609 1.85604 11.67 1.51463C11.6945 1.4381 11.6692 1.35433 11.6063 1.30428C11.5434 1.25419 11.4561 1.24819 11.387 1.28918C10.9664 1.53863 10.5126 1.71789 10.0368 1.82272C9.55758 1.35441 8.90664 1.08789 8.23371 1.08789C6.81326 1.08789 5.65762 2.24349 5.65762 3.6639C5.65762 3.77577 5.6647 3.88702 5.67872 3.99673C3.91607 3.84197 2.27738 2.9756 1.15209 1.59526C1.11198 1.54606 1.0502 1.51954 0.98695 1.52461C0.92366 1.52957 0.866795 1.56526 0.834821 1.62011C0.606589 2.01173 0.485931 2.45964 0.485931 2.91537C0.485931 3.53608 0.707544 4.12501 1.09901 4.58519C0.979982 4.54396 0.864473 4.49244 0.754228 4.43124C0.695041 4.3983 0.622808 4.3988 0.564008 4.43252C0.50517 4.46624 0.468279 4.52825 0.466731 4.59603C0.46646 4.60745 0.46646 4.61887 0.46646 4.63044C0.46646 5.55696 0.965118 6.39111 1.7275 6.84576C1.66201 6.83921 1.59655 6.82973 1.53152 6.8173C1.46447 6.80449 1.39553 6.82799 1.35032 6.87912C1.30503 6.93022 1.29005 7.00145 1.31091 7.06648C1.5931 7.94751 2.31965 8.59555 3.19797 8.79312C2.46949 9.24939 1.63642 9.48839 0.761892 9.48839C0.579415 9.48839 0.395892 9.47766 0.216279 9.45641C0.127053 9.44581 0.0417372 9.49849 0.0113501 9.58334C-0.019037 9.66823 0.0131695 9.76288 0.0890792 9.81153C1.21255 10.5319 2.51161 10.9126 3.84574 10.9126C6.46847 10.9126 8.10918 9.67586 9.0237 8.63832C10.1641 7.34461 10.8181 5.63221 10.8181 3.94025C10.8181 3.86957 10.817 3.79818 10.8149 3.72704C11.2648 3.38806 11.6522 2.97781 11.9674 2.50629C12.0153 2.43468 12.0101 2.34003 11.9546 2.27411C11.8992 2.20815 11.8069 2.18682 11.7281 2.22173Z" fill="white"/>
</g>
<defs>
<clipPath id="clip0">
<rect width="12" height="12" fill="white"/>
</clipPath>
</defs>
</svg>
