<svg width="14" height="8" viewBox="0 0 14 8" fill="none" xmlns="http://www.w3.org/2000/svg">
<path d="M4.58759e-08 4.15293C2.05799e-08 6.2742 1.7258 8 3.84707 8C5.79831 8 7.41478 6.53975 7.66143 4.65472L9.65114 4.65472L9.65114 5.8256C9.65114 6.10272 9.8758 6.32739 10.1529 6.32739C10.4301 6.32739 10.6547 6.10272 10.6547 5.8256L10.6547 4.65472L11.3238 4.65472L11.3238 5.15651C11.3238 5.43363 11.5484 5.6583 11.8256 5.6583C12.1027 5.6583 12.3274 5.43363 12.3274 5.15651L12.3274 4.65472L13.4982 4.65472C13.7753 4.65472 14 4.43005 14 4.15293C14 3.8758 13.7753 3.65114 13.4982 3.65114L7.66143 3.65114C7.41478 1.7661 5.79831 0.305854 3.84707 0.305854C1.7258 0.305854 7.11718e-08 2.03165 4.58759e-08 4.15293ZM6.69056 4.15293C6.69056 5.72083 5.41497 6.99642 3.84707 6.99642C2.27917 6.99642 1.00358 5.72083 1.00358 4.15293C1.00358 2.58503 2.27917 1.30944 3.84707 1.30944C5.41497 1.30944 6.69056 2.58503 6.69056 4.15293Z" fill="#BCBCBC"/>
</svg>
