<svg width="12" height="12" viewBox="0 0 12 12" fill="none" xmlns="http://www.w3.org/2000/svg">
<g clip-path="url(#clip0)">
<path fill-rule="evenodd" clip-rule="evenodd" d="M10.3277 6.92246C10.7258 7.31109 11.1459 7.67674 11.5029 8.10456C11.6606 8.29468 11.8099 8.49086 11.9241 8.7115C12.086 9.02514 11.9394 9.37028 11.6582 9.38901L9.90998 9.38822C9.45909 9.42564 9.0994 9.24412 8.79696 8.93584C8.55491 8.6893 8.33077 8.42691 8.09803 8.17206C8.00262 8.06789 7.90275 7.96988 7.78345 7.8924C7.54479 7.73749 7.33764 7.78492 7.20127 8.03383C7.06237 8.28699 7.03086 8.56731 7.01722 8.84945C6.99849 9.26111 6.87406 9.36934 6.46055 9.38818C5.57684 9.42986 4.73814 9.29616 3.95903 8.85036C3.27213 8.45735 2.73947 7.90253 2.27585 7.27442C1.37317 6.05136 0.681895 4.70741 0.0606041 3.32581C-0.0792435 3.01453 0.0230301 2.84744 0.366479 2.84153C0.93679 2.83045 1.50702 2.83124 2.078 2.84074C2.3098 2.84413 2.46325 2.97708 2.55275 3.19605C2.8613 3.95475 3.23885 4.67658 3.71277 5.34565C3.83897 5.52379 3.96766 5.70192 4.15092 5.82729C4.35365 5.96612 4.50801 5.92011 4.60338 5.69427C4.6639 5.55107 4.6904 5.39683 4.70404 5.24346C4.74922 4.71581 4.75518 4.18906 4.67593 3.66326C4.62728 3.33511 4.44244 3.12268 4.115 3.06058C3.94791 3.02892 3.97279 2.96675 4.05369 2.87137C4.19421 2.70688 4.32637 2.60449 4.58982 2.60449H6.56555C6.87659 2.66588 6.94566 2.80561 6.98824 3.11858L6.98994 5.31321C6.98655 5.43436 7.05046 5.7939 7.26869 5.87409C7.44335 5.93118 7.55848 5.79146 7.66327 5.6807C8.13632 5.17864 8.47393 4.5853 8.77555 3.97091C8.9094 3.70076 9.02449 3.4202 9.13603 3.13987C9.21867 2.93185 9.34834 2.8295 9.58266 2.83404L11.4842 2.83573C11.5406 2.83573 11.5976 2.83656 11.6522 2.8459C11.9726 2.90051 12.0604 3.03835 11.9615 3.35124C11.8056 3.84215 11.5022 4.25124 11.2055 4.66223C10.8884 5.10101 10.5493 5.52477 10.2348 5.96616C9.94586 6.36922 9.96881 6.57239 10.3277 6.92246Z" fill="white"/>
</g>
<defs>
<clipPath id="clip0">
<rect width="12" height="12" fill="white"/>
</clipPath>
</defs>
</svg>
