<svg width="12" height="12" viewBox="0 0 12 12" fill="none" xmlns="http://www.w3.org/2000/svg">
<path d="M11.5323 2.5023C11.0991 1.98738 10.2994 1.77734 8.77204 1.77734H3.22785C1.66556 1.77734 0.852271 2.00093 0.420736 2.54914C0 3.08364 0 3.87119 0 4.96118V7.03869C0 9.15034 0.4992 10.2225 3.22785 10.2225H8.77208C10.0966 10.2225 10.8305 10.0371 11.3053 9.58273C11.7922 9.11674 12 8.3559 12 7.03869V4.96118C12 3.81169 11.9674 3.0195 11.5323 2.5023ZM7.70404 6.28675L5.18644 7.60253C5.13016 7.63195 5.06861 7.64654 5.00714 7.64654C4.93754 7.64654 4.86809 7.62781 4.80658 7.59057C4.69076 7.52039 4.62004 7.39485 4.62004 7.25945V4.63632C4.62004 4.50115 4.69057 4.37573 4.80615 4.30551C4.92178 4.23529 5.06559 4.23049 5.18555 4.29281L7.70315 5.60012C7.83124 5.66662 7.91168 5.79885 7.91187 5.94313C7.91203 6.08751 7.83194 6.21994 7.70404 6.28675Z" fill="white"/>
</svg>
